<?xml version="1.0" encoding="utf-8"?>
<!-- Generator: Adobe Illustrator 22.1.0, SVG Export Plug-In . SVG Version: 6.00 Build 0)  -->
<svg version="1.1" xmlns="http://www.w3.org/2000/svg" x="0px" y="0px"
     viewBox="0 0 100 125" style="enable-background:new 0 0 100 125;" xml:space="preserve">
<style type="text/css">
	.st0{display:none;}
	.st1{display:inline;}
	.st2{fill:#FFFFFF;}
</style>
  <g id="图层_1">
	<g>
		<g>
			<path d="M50.1,51.6c-2.1,0.2-3.9-0.3-5.7-1.2c-8.8-4.4-17.6-8.8-26.5-13.3c-0.7-0.3-1.4-0.7-1.9-1.2c-1.5-1.3-1.5-2.8,0-4
				c0.6-0.5,1.4-0.9,2.2-1.3c8.6-4.3,17.3-8.6,25.9-13c4-2,8-2,12,0c8.6,4.3,17.2,8.6,25.9,12.9c0.5,0.3,1.1,0.5,1.6,0.9
				c2.4,1.5,2.3,3.4-0.1,5c-0.5,0.4-1,0.6-1.5,0.9c-8.7,4.3-17.4,8.7-26.1,13.1C54.1,51.3,52.2,51.9,50.1,51.6z"/>
      <path d="M49.5,69c-2,0.2-3.9-0.4-5.8-1.3c-9-4.5-17.9-9-26.9-13.5c-1.4-0.7-2.5-1.6-2.1-3.4c0.2-1.3,1.2-2.1,2.5-2.3
				c1.1-0.2,2.1,0.4,3,0.9c8.2,4.1,16.5,8.2,24.6,12.4c3.6,1.8,6.8,1.9,10.4,0c8.1-4.2,16.3-8.2,24.4-12.3c0.7-0.4,1.5-0.8,2.3-1
				c1.4-0.3,2.5,0.3,3.2,1.6c0.7,1.2,0.3,2.4-0.7,3.3c-0.6,0.5-1.3,0.9-1.9,1.2C74.2,58.8,66,63,57.7,67.1
				C55.2,68.4,52.5,69.1,49.5,69z"/>
      <path d="M50.1,85.8c-2.4,0.2-4.6-0.5-6.8-1.6c-8.6-4.3-17.1-8.5-25.7-12.8c-0.7-0.4-1.5-0.8-2.1-1.3c-1-0.9-1.2-2.1-0.5-3.3
				c0.8-1.2,1.8-1.9,3.3-1.4c0.7,0.2,1.4,0.6,2.1,0.9c8.2,4.1,16.5,8.2,24.6,12.4c3.4,1.8,6.6,1.8,10,0c8.4-4.3,16.8-8.5,25.2-12.7
				c1.2-0.6,2.3-1.2,3.6-0.4c1.8,1,2,3.5,0.4,4.8c-0.6,0.5-1.3,0.8-2,1.1c-8.4,4.2-16.9,8.4-25.3,12.6C54.9,85.2,52.6,86,50.1,85.8z
				"/>
		</g>
	</g>
</g>
  <g id="图层_3">
</g>
  <g id="图层_2" class="st0">
	<g class="st1">
		<circle class="st2" cx="74.4" cy="65.2" r="21.1"/>
    <path d="M93.9,79.9l-5.5-5.5c1.6-2.5,2.5-5.5,2.5-8.7c0-9.2-7.4-16.5-16.6-16.5s-16.5,7.4-16.5,16.5c0,9.2,7.4,16.5,16.6,16.5
			c3.4,0,6.7-1,9.3-2.8l5.4,5.4c0.6,0.6,1.5,1,2.5,1c1.9,0,3.4-1.5,3.4-3.4C95,81.4,94.5,80.5,93.9,79.9L93.9,79.9z M74.4,77
			c-6.3,0-11.4-5.1-11.4-11.4S68,54.2,74.4,54.2c6.3,0,11.4,5.1,11.4,11.4S80.7,77,74.4,77z"/>
	</g>
</g>
</svg>
